{
    "asset": {
        "generator": "FBX2glTF v0.9.7",
        "version": "2.0"
    },
    "scene": 0,
    "buffers": [
        {
            "byteLength": 743360,
            "uri": "buffer.bin"
        }
    ],
    "bufferViews": [
        {
            "buffer": 0,
            "byteLength": 94272,
            "byteOffset": 0,
            "target": 34963
        },
        {
            "buffer": 0,
            "byteLength": 243408,
            "byteOffset": 94272,
            "target": 34962
        },
        {
            "buffer": 0,
            "byteLength": 243408,
            "byteOffset": 337680,
            "target": 34962
        },
        {
            "buffer": 0,
            "byteLength": 162272,
            "byteOffset": 581088,
            "target": 34962
        }
    ],
    "scenes": [
        {
            "name": "Root Scene",
            "nodes": [
                0
            ]
        }
    ],
    "accessors": [
        {
            "componentType": 5123,
            "type": "SCALAR",
            "count": 47136,
            "bufferView": 0,
            "byteOffset": 0
        },
        {
            "componentType": 5126,
            "type": "VEC3",
            "count": 20284,
            "bufferView": 1,
            "byteOffset": 0,
            "min": [
                -0.13394954800606,
                -0.040956724435091,
                -0.27199396491051
            ],
            "max": [
                0.21177452802658,
                0.43068540096283,
                0.1509615033865
            ]
        },
        {
            "componentType": 5126,
            "type": "VEC3",
            "count": 20284,
            "bufferView": 2,
            "byteOffset": 0
        },
        {
            "componentType": 5126,
            "type": "VEC2",
            "count": 20284,
            "bufferView": 3,
            "byteOffset": 0
        }
    ],
    "images": [
        {
            "name": "normal.jpg",
            "uri": "normal.jpg"
        },
        {
            "name": "mask.png",
            "uri": "mask.png"
        }
    ],
    "samplers": [
        {}
    ],
    "textures": [
        {
            "name": "file41",
            "sampler": 0,
            "source": 0
        },
        {
            "name": "file40",
            "sampler": 0,
            "source": 1
        }
    ],
    "materials": [
        {
            "name": "StingrayPBSShaded",
            "alphaMode": "OPAQUE",
            "extras": {
                "fromFBX": {
                    "shadingModel": "Metallic/Roughness",
                    "isTruePBR": true
                }
            },
            "normalTexture": {
                "index": 0,
                "texCoord": 0
            },
            "pbrMetallicRoughness": {
                "baseColorTexture": {
                    "index": 1,
                    "texCoord": 0
                },
                "baseColorFactor": [
                    0.5,
                    0.5,
                    0.5,
                    1
                ],
                "metallicFactor": 0,
                "roughnessFactor": 0.33000001311302
            }
        }
    ],
    "meshes": [
        {
            "name": "Hair1",
            "primitives": [
                {
                    "material": 0,
                    "mode": 4,
                    "attributes": {
                        "NORMAL": 2,
                        "POSITION": 1,
                        "TEXCOORD_0": 3
                    },
                    "indices": 0
                }
            ]
        }
    ],
    "nodes": [
        {
            "name": "RootNode",
            "translation": [
                0,
                0,
                0
            ],
            "rotation": [
                0,
                0,
                0,
                1
            ],
            "scale": [
                1,
                1,
                1
            ],
            "children": [
                1
            ]
        },
        {
            "name": "Hair1",
            "translation": [
                -4.440891999239e-18,
                0.12858407199383,
                0
            ],
            "rotation": [
                0,
                0,
                0,
                1
            ],
            "scale": [
                0.040190994739532,
                0.040190994739532,
                0.040190994739532
            ],
            "mesh": 0
        }
    ]
}